<svg width="13" height="13" xmlns="http://www.w3.org/2000/svg"><path d="M6.5 13a6.5 6.5 0 110-13 6.5 6.5 0 010 13zM2.059 5.783c.482-.127 2.462-.859 4.441-.859 1.979 0 3.963.735 4.444.86.48.125.655.168.613-.097a5.087 5.087 0 00-1.03-2.352A5.112 5.112 0 006.5 1.379 5.112 5.112 0 002.477 3.33a5.11 5.11 0 00-1.034 2.356c-.042.265.133.223.616.097zm1.496 2.1c-1.19-.653-1.813-.356-1.954-.19-.14.165.05.467.104.61a5.136 5.136 0 002.65 2.848c.329.153.521.273.84.273.32 0 .517.05.517-.886 0-.316 0-1.473-2.157-2.655zm5.888 0c-2.156 1.182-2.156 2.34-2.156 2.655 0 .935.196.886.516.886s.512-.12.84-.272a5.136 5.136 0 002.65-2.848c.054-.144.245-.446.104-.612-.14-.165-.763-.462-1.954.19z" fill="#5C5E62" fill-rule="evenodd"/></svg>