<svg width="28" height="28" viewBox="0 0 28 28" fill="none" xmlns="http://www.w3.org/2000/svg">
<path d="M23.3333 23.3333V24.3333H24.3333V23.3333H23.3333ZM18.2071 16.7929C17.8166 16.4023 17.1834 16.4023 16.7929 16.7929C16.4023 17.1834 16.4023 17.8166 16.7929 18.2071L18.2071 16.7929ZM22.3333 16.3333V23.3333H24.3333V16.3333H22.3333ZM23.3333 22.3333H16.3333V24.3333H23.3333V22.3333ZM24.0404 22.6262L18.2071 16.7929L16.7929 18.2071L22.6262 24.0404L24.0404 22.6262Z" fill="white"/>
<path d="M4.66669 23.3333H3.66669V24.3333H4.66669V23.3333ZM11.2071 18.2071C11.5977 17.8166 11.5977 17.1834 11.2071 16.7929C10.8166 16.4023 10.1834 16.4023 9.79291 16.7929L11.2071 18.2071ZM3.66669 16.3333V23.3333H5.66669V16.3333H3.66669ZM4.66669 24.3333H11.6667V22.3333H4.66669V24.3333ZM5.37379 24.0404L11.2071 18.2071L9.79291 16.7929L3.95958 22.6262L5.37379 24.0404Z" fill="white"/>
<path d="M23.3333 4.66669H24.3333V3.66669H23.3333V4.66669ZM16.7929 9.79291C16.4023 10.1834 16.4023 10.8166 16.7929 11.2071C17.1834 11.5977 17.8166 11.5977 18.2071 11.2071L16.7929 9.79291ZM24.3333 11.6667V4.66669H22.3333V11.6667H24.3333ZM23.3333 3.66669H16.3333V5.66669H23.3333V3.66669ZM22.6262 3.95958L16.7929 9.79291L18.2071 11.2071L24.0404 5.37379L22.6262 3.95958Z" fill="white"/>
<path d="M4.66669 4.66669V3.66669H3.66669V4.66669H4.66669ZM9.79291 11.2071C10.1834 11.5977 10.8166 11.5977 11.2071 11.2071C11.5977 10.8166 11.5977 10.1834 11.2071 9.79291L9.79291 11.2071ZM5.66669 11.6667V4.66669H3.66669V11.6667H5.66669ZM4.66669 5.66669H11.6667V3.66669H4.66669V5.66669ZM3.95958 5.37379L9.79291 11.2071L11.2071 9.79291L5.37379 3.95958L3.95958 5.37379Z" fill="white"/>
</svg>
