<svg width="26" height="26" viewBox="0 0 26 26" fill="none" xmlns="http://www.w3.org/2000/svg">
<path d="M13 13L13 20" stroke="white" stroke-width="2" stroke-linecap="square"/>
<path d="M15.0259 24.4895C16.5347 24.2234 17.9764 23.6628 19.2685 22.8396C20.5607 22.0164 21.678 20.9468 22.5568 19.6918C23.4356 18.4368 24.0585 17.0209 24.3901 15.5252C24.7217 14.0294 24.7555 12.483 24.4894 10.9741C24.2234 9.46533 23.6628 8.02369 22.8396 6.73154C22.0164 5.43939 20.9468 4.32204 19.6917 3.44327C18.4367 2.5645 17.0209 1.94152 15.5251 1.60992C14.0294 1.27832 12.4829 1.24457 10.9741 1.51062C9.46531 1.77666 8.02367 2.33728 6.73152 3.16047C5.43937 3.98367 4.32201 5.0533 3.44324 6.30832C2.56447 7.56333 1.9415 8.97914 1.6099 10.4749C1.27829 11.9707 1.24455 13.5171 1.5106 15.0259C1.77664 16.5348 2.33726 17.9764 3.16045 19.2685C3.98365 20.5607 5.05328 21.678 6.3083 22.5568C7.56331 23.4356 8.97912 24.0586 10.4749 24.3902C11.9707 24.7218 13.5171 24.7555 15.0259 24.4895L15.0259 24.4895Z" stroke="white" stroke-width="2"/>
<path d="M13 7.16663L13 5.99996" stroke="white" stroke-width="2" stroke-linecap="square"/>
</svg>
