<svg width="26" height="28" viewBox="0 0 26 28" fill="none" xmlns="http://www.w3.org/2000/svg">
<path d="M23.2022 5.28441L13.7878 1.24968C13.2847 1.03406 12.7153 1.03406 12.2122 1.24968L2.79778 5.28441C1.97854 5.63551 1.49051 6.48635 1.60106 7.37077L2.71405 16.2746C2.9342 18.0359 3.81518 19.6477 5.17871 20.784L11.7196 26.2347C12.4613 26.8528 13.5387 26.8528 14.2804 26.2347L20.8213 20.784C22.1848 19.6477 23.0658 18.0359 23.286 16.2746L24.3989 7.37077C24.5095 6.48635 24.0215 5.63551 23.2022 5.28441Z" stroke="#8FFF00" stroke-width="2" stroke-linecap="round"/>
<path d="M8.5 14L12.5687 18.0687C12.7918 18.2918 13.1633 18.2551 13.3383 17.9925L19 9.5" stroke="#8FFF00" stroke-width="2" stroke-linecap="round"/>
</svg>
