<svg width="34" height="34" viewBox="0 0 34 34" fill="none" xmlns="http://www.w3.org/2000/svg">
<path d="M7.08331 18.0761C7.08331 16.1526 7.08331 15.1909 7.47213 14.3455C7.86095 13.5001 8.59116 12.8742 10.0516 11.6224L11.4683 10.4081C14.108 8.14552 15.4278 7.01422 17 7.01422C18.5722 7.01422 19.892 8.14552 22.5317 10.4081L23.9484 11.6224C25.4088 12.8742 26.139 13.5001 26.5278 14.3455C26.9166 15.1909 26.9166 16.1526 26.9166 18.0761V24.0833C26.9166 26.7546 26.9166 28.0902 26.0868 28.9201C25.2569 29.75 23.9213 29.75 21.25 29.75H12.75C10.0787 29.75 8.74304 29.75 7.91318 28.9201C7.08331 28.0902 7.08331 26.7546 7.08331 24.0833V18.0761Z" stroke="white" stroke-width="2"/>
<path d="M20.5416 29.75V22.25C20.5416 21.6977 20.0939 21.25 19.5416 21.25H14.4583C13.906 21.25 13.4583 21.6977 13.4583 22.25V29.75" stroke="white" stroke-width="2" stroke-linecap="round" stroke-linejoin="round"/>
</svg>
