<svg width="52" height="52" viewBox="0 0 52 52" fill="none" xmlns="http://www.w3.org/2000/svg">
<path d="M10.8333 27.6458C10.8333 24.704 10.8333 23.2331 11.428 21.9402C12.0227 20.6472 13.1395 19.69 15.373 17.7755L17.5397 15.9183C21.5769 12.4579 23.5955 10.7277 26 10.7277C28.4045 10.7277 30.4231 12.4579 34.4603 15.9183L36.627 17.7755C38.8605 19.69 39.9773 20.6472 40.572 21.9402C41.1667 23.2331 41.1667 24.704 41.1667 27.6458V36.8333C41.1667 40.9188 41.1667 42.9616 39.8975 44.2308C38.6283 45.5 36.5855 45.5 32.5 45.5H19.5C15.4145 45.5 13.3717 45.5 12.1025 44.2308C10.8333 42.9616 10.8333 40.9188 10.8333 36.8333V27.6458Z" stroke="#8FFF00" stroke-width="2"/>
<path d="M31.4167 45.5V33.5C31.4167 32.9477 30.9689 32.5 30.4167 32.5H21.5833C21.031 32.5 20.5833 32.9477 20.5833 33.5V45.5" stroke="#8FFF00" stroke-width="2" stroke-linecap="round" stroke-linejoin="round"/>
</svg>
