<svg width="29" height="29" viewBox="0 0 29 29" fill="none" xmlns="http://www.w3.org/2000/svg">
<path d="M14.4635 14.1277L14.4635 21.8959" stroke="#8FFF00" stroke-width="2" stroke-linecap="square"/>
<path d="M16.7118 26.8781C18.3862 26.5829 19.986 25.9607 21.42 25.0472C22.854 24.1337 24.0939 22.9466 25.0692 21.5539C26.0444 20.1611 26.7357 18.5899 27.1037 16.93C27.4717 15.2701 27.5092 13.5539 27.2139 11.8795C26.9187 10.2051 26.2965 8.60525 25.383 7.17128C24.4695 5.73732 23.2824 4.49733 21.8897 3.52212C20.4969 2.5469 18.9257 1.85556 17.2658 1.48756C15.6059 1.11956 13.8897 1.08212 12.2153 1.37736C10.5409 1.6726 8.94103 2.29475 7.50707 3.20829C6.07311 4.12182 4.83312 5.30886 3.8579 6.70161C2.88269 8.09436 2.19135 9.66555 1.82335 11.3255C1.45535 12.9854 1.41791 14.7016 1.71315 16.376C2.00839 18.0504 2.63054 19.6502 3.54408 21.0842C4.45761 22.5182 5.64464 23.7582 7.0374 24.7334C8.43015 25.7086 10.0013 26.3999 11.6613 26.7679C13.3212 27.1359 15.0374 27.1734 16.7118 26.8781L16.7118 26.8781Z" stroke="#8FFF00" stroke-width="2"/>
<path d="M14.4635 7.65417L14.4635 6.35947" stroke="#8FFF00" stroke-width="2" stroke-linecap="square"/>
</svg>
