<svg width="34" height="34" viewBox="0 0 34 34" fill="none" xmlns="http://www.w3.org/2000/svg">
<path d="M18.0047 7.09763C20.2084 6.80863 22.4487 7.16442 24.4544 8.12197C26.4602 9.07952 28.1455 10.5978 29.3065 12.4931C30.4674 14.3884 31.0543 16.5795 30.9961 18.8013C30.9378 21.0232 30.237 23.1806 28.9783 25.0124C27.7196 26.8443 25.9571 28.2722 23.9039 29.1233C21.8508 29.9745 19.5949 30.2124 17.4094 29.8084C15.2238 29.4043 13.2021 28.3756 11.589 26.8466C9.97583 25.3176 8.84031 23.354 8.3198 21.1932" stroke="white" stroke-width="2"/>
<path d="M9.45544 5.40967C10.9097 4.29379 12.5378 3.42947 14.272 2.85015C14.7058 2.70524 14.9227 2.63278 15.1129 2.73509C15.3032 2.83739 15.3649 3.06764 15.4883 3.52815L19.2412 17.5341C19.3632 17.9894 19.4242 18.2171 19.3206 18.3964C19.2171 18.5758 18.9894 18.6368 18.5341 18.7588L4.52815 22.5117C4.06764 22.6351 3.83739 22.6968 3.65365 22.5831C3.46991 22.4695 3.42422 22.2454 3.33282 21.7973C2.96744 20.0058 2.9019 18.1637 3.14116 16.3463C3.42399 14.198 4.12718 12.1265 5.21058 10.25C6.29399 8.37349 7.73639 6.72874 9.45544 5.40967Z" stroke="white" stroke-width="2"/>
</svg>
