<svg width="30" height="30" viewBox="0 0 30 30" fill="none" xmlns="http://www.w3.org/2000/svg">
<path d="M17.886 3.62918L18.881 3.52968V3.52968L17.886 3.62918ZM18.687 6.33954L19.0696 5.41566V5.41566L18.687 6.33954ZM21.1698 4.98941L20.5698 4.18941L20.5529 4.20208L20.5366 4.21545L21.1698 4.98941ZM21.1698 4.9894L21.7698 5.7894L21.7867 5.77673L21.8031 5.76336L21.1698 4.9894ZM23.8622 5.11351L24.5693 4.4064V4.4064L23.8622 5.11351ZM25.0755 6.32677L24.3684 7.03388L25.0755 6.32677ZM26.0071 7.62399L27.0058 7.57418V7.57417L26.0071 7.62399ZM25.1996 9.0192L25.9735 9.65244V9.65244L25.1996 9.0192ZM28.1174 12.7186L28.8588 12.0476L28.8588 12.0476L28.1174 12.7186ZM28.1174 17.5864L28.8588 18.2574L28.8588 18.2574L28.1174 17.5864ZM26.56 18.002L26.4605 17.007H26.4605L26.56 18.002ZM25.1998 21.2854L24.4258 21.9187L25.1998 21.2854ZM22.5651 26.1225L22.6149 27.1213H22.6149L22.5651 26.1225ZM21.1699 25.3151L20.5366 26.089L21.1699 25.3151ZM18.687 23.9649L18.3043 23.041L18.3043 23.041L18.687 23.9649ZM17.886 26.6757L16.891 26.5762L16.886 26.6258V26.6757H17.886ZM17.886 26.6757L18.8811 26.7752L18.886 26.7256V26.6757H17.886ZM17.4704 28.2334L18.1414 28.9748L18.1414 28.9748L17.4704 28.2334ZM12.6026 28.2334L11.9316 28.9748L11.9316 28.9748L12.6026 28.2334ZM12.187 26.6758L13.1821 26.5763L12.187 26.6758ZM8.90315 25.3156L9.53639 26.0896H9.53639L8.90315 25.3156ZM6.21071 25.1916L6.91781 24.4844H6.91781L6.21071 25.1916ZM4.99744 23.9783L4.29033 24.6854H4.29033L4.99744 23.9783ZM4.87335 21.2859L5.6473 21.9191H5.6473L4.87335 21.2859ZM6.22351 18.803L7.14739 18.4203H7.14739L6.22351 18.803ZM3.51317 18.002L3.41366 18.9971L3.41366 18.9971L3.51317 18.002ZM1.95565 17.5864L1.21419 18.2574H1.21419L1.95565 17.5864ZM1.6971 16.0104H0.697098H1.6971ZM1.6971 14.2946H2.6971H1.6971ZM1.95565 12.7186L1.21419 12.0476L1.21419 12.0476L1.95565 12.7186ZM3.51333 12.303L3.61284 13.2981H3.61284L3.51333 12.303ZM6.22402 11.502L7.1479 11.8847L7.1479 11.8847L6.22402 11.502ZM4.87355 9.01878L4.09959 9.65202H4.09959L4.87355 9.01878ZM4.9975 6.32617L5.70461 7.03328V7.03328L4.9975 6.32617ZM6.21076 5.1129L6.91787 5.82001L6.21076 5.1129ZM8.90321 4.98882L8.26997 5.76278L8.28631 5.77615L8.30321 5.78882L8.90321 4.98882ZM8.90321 4.98883L9.53645 4.21487L9.52011 4.2015L9.50321 4.18883L8.90321 4.98883ZM11.3861 6.33901L11.7688 7.26289L11.3861 6.33901ZM12.187 3.62901L13.1821 3.72852V3.72852L12.187 3.62901ZM12.6026 2.07166L11.9316 1.3302L11.9316 1.33021L12.6026 2.07166ZM18.881 3.52968C18.8404 3.1231 18.8023 2.7234 18.7273 2.39799C18.6462 2.04623 18.4956 1.65069 18.1414 1.3302L16.7994 2.81311C16.731 2.75118 16.7448 2.7014 16.7784 2.84728C16.8181 3.01949 16.845 3.26928 16.891 3.72869L18.881 3.52968ZM19.0696 5.41566C19.2471 5.48915 19.2005 5.633 19.1114 5.27648C19.0229 4.92225 18.9671 4.39028 18.881 3.52968L16.891 3.72869C16.9703 4.52234 17.0386 5.23105 17.171 5.76119C17.3029 6.28904 17.574 6.96094 18.3043 7.26342L19.0696 5.41566ZM20.5366 4.21545C19.8672 4.76312 19.4516 5.09982 19.1385 5.28772C18.8235 5.47684 18.8922 5.34216 19.0696 5.41566L18.3043 7.26342C19.0345 7.56589 19.7013 7.28252 20.1678 7.00252C20.6363 6.72129 21.1857 6.26843 21.803 5.76337L20.5366 4.21545ZM20.5698 4.1894L20.5698 4.18941L21.7698 5.78941L21.7698 5.7894L20.5698 4.1894ZM22.6148 3.18318C22.1378 3.15938 21.7516 3.33254 21.4455 3.52392C21.1624 3.70098 20.8528 3.9567 20.5366 4.21544L21.8031 5.76336C22.1604 5.47099 22.356 5.31339 22.5059 5.21969C22.6328 5.14032 22.6074 5.18529 22.5152 5.18069L22.6148 3.18318ZM24.5693 4.4064C24.2841 4.12118 24.0038 3.83809 23.7408 3.63513C23.4551 3.41474 23.0896 3.20685 22.6148 3.18318L22.5152 5.18069C22.4253 5.17621 22.4042 5.12998 22.5189 5.21852C22.6562 5.32449 22.8321 5.49758 23.1551 5.82062L24.5693 4.4064ZM25.7826 5.61967L24.5693 4.4064L23.1551 5.82061L24.3684 7.03388L25.7826 5.61967ZM27.0058 7.57417C26.9821 7.09942 26.7743 6.73385 26.5539 6.44824C26.3509 6.18524 26.0678 5.90489 25.7826 5.61967L24.3684 7.03388C24.6914 7.35691 24.8645 7.53276 24.9705 7.67008C25.059 7.78481 25.0128 7.76373 25.0083 7.67381L27.0058 7.57417ZM25.9735 9.65244C26.2323 9.33619 26.488 9.02665 26.6651 8.7435C26.8565 8.43743 27.0296 8.0512 27.0058 7.57418L25.0083 7.6738C25.0037 7.58162 25.0487 7.5562 24.9693 7.68313C24.8756 7.83298 24.718 8.02862 24.4256 8.38596L25.9735 9.65244ZM24.7733 11.1194C24.8468 11.2968 24.7121 11.3656 24.9012 11.0505C25.0892 10.7375 25.4259 10.3218 25.9735 9.65244L24.4256 8.38596C23.9206 9.00328 23.4677 9.55268 23.1865 10.0212C22.9064 10.4877 22.6231 11.1545 22.9255 11.8848L24.7733 11.1194ZM26.6593 11.308C25.7987 11.2219 25.2667 11.1661 24.9125 11.0776C24.556 10.9886 24.6998 10.942 24.7733 11.1194L22.9255 11.8848C23.228 12.615 23.8999 12.8862 24.4278 13.018C24.9579 13.1504 25.6667 13.2187 26.4603 13.2981L26.6593 11.308ZM28.8588 12.0476C28.5384 11.6935 28.1428 11.5428 27.791 11.4617C27.4656 11.3867 27.0659 11.3487 26.6593 11.308L26.4603 13.2981C26.9197 13.344 27.1695 13.3709 27.3418 13.4106C27.4876 13.4442 27.4379 13.4581 27.3759 13.3896L28.8588 12.0476ZM29.3759 14.2946C29.3759 13.8913 29.3779 13.4928 29.3354 13.1634C29.2893 12.8056 29.1778 12.4001 28.8588 12.0476L27.3759 13.3896C27.3155 13.3229 27.3333 13.2753 27.3518 13.419C27.374 13.591 27.3759 13.8378 27.3759 14.2946H29.3759ZM29.3759 16.0104V14.2946H27.3759V16.0104H29.3759ZM28.8588 18.2574C29.1778 17.905 29.2893 17.4995 29.3354 17.1417C29.3779 16.8122 29.3759 16.4138 29.3759 16.0104H27.3759C27.3759 16.4673 27.374 16.714 27.3518 16.886C27.3333 17.0298 27.3155 16.9822 27.3759 16.9154L28.8588 18.2574ZM26.6595 18.997C27.066 18.9564 27.4657 18.9183 27.7911 18.8433C28.1429 18.7622 28.5384 18.6115 28.8588 18.2574L27.3759 16.9154C27.4379 16.847 27.4876 16.8608 27.3418 16.8944C27.1696 16.9341 26.9199 16.961 26.4605 17.007L26.6595 18.997ZM24.7738 19.1856C24.7003 19.363 24.5565 19.3164 24.9129 19.2274C25.2671 19.1389 25.799 19.0831 26.6595 18.997L26.4605 17.007C25.6669 17.0863 24.9583 17.1546 24.4282 17.287C23.9003 17.4189 23.2285 17.69 22.926 18.4202L24.7738 19.1856ZM25.9737 20.6522C25.4262 19.9829 25.0895 19.5674 24.9017 19.2544C24.7126 18.9395 24.8473 19.0082 24.7738 19.1856L22.926 18.4202C22.6236 19.1504 22.9069 19.8172 23.1869 20.2837C23.4681 20.7522 23.9209 21.3015 24.4258 21.9187L25.9737 20.6522ZM27.0059 22.7303C27.0297 22.2533 26.8566 21.8671 26.6652 21.561C26.4881 21.2779 26.2324 20.9684 25.9737 20.6522L24.4258 21.9187C24.7181 22.276 24.8757 22.4715 24.9694 22.6214C25.0487 22.7482 25.0038 22.7228 25.0084 22.6307L27.0059 22.7303ZM25.7826 24.6848C26.0679 24.3996 26.351 24.1192 26.5539 23.8562C26.7743 23.5706 26.9822 23.205 27.0059 22.7303L25.0084 22.6307C25.0128 22.5407 25.0591 22.5196 24.9705 22.6344C24.8646 22.7717 24.6915 22.9475 24.3684 23.2706L25.7826 24.6848ZM24.5694 25.8981L25.7826 24.6848L24.3684 23.2706L23.1552 24.4838L24.5694 25.8981ZM22.6149 27.1213C23.0896 27.0976 23.4552 26.8897 23.7408 26.6693C24.0038 26.4664 24.2842 26.1833 24.5694 25.8981L23.1552 24.4838C22.8321 24.8069 22.6563 24.98 22.519 25.0859C22.4042 25.1745 22.4253 25.1283 22.5152 25.1238L22.6149 27.1213ZM20.5366 26.089C20.8529 26.3478 21.1624 26.6035 21.4456 26.7805C21.7516 26.9719 22.1379 27.1451 22.6149 27.1213L22.5152 25.1238C22.6074 25.1192 22.6329 25.1641 22.5059 25.0848C22.3561 24.9911 22.1604 24.8335 21.8031 24.5411L20.5366 26.089ZM19.0697 24.8888C18.8923 24.9623 18.8235 24.8276 19.1386 25.0167C19.4516 25.2046 19.8672 25.5413 20.5366 26.089L21.8031 24.5411C21.1858 24.036 20.6364 23.5832 20.1679 23.3019C19.7014 23.0219 19.0346 22.7386 18.3043 23.041L19.0697 24.8888ZM18.8811 26.7752C18.9671 25.9145 19.023 25.3824 19.1115 25.0281C19.2005 24.6714 19.2472 24.8153 19.0697 24.8888L18.3043 23.041C17.574 23.3435 17.3029 24.0155 17.1711 24.5434C17.0386 25.0736 16.9704 25.7824 16.891 26.5762L18.8811 26.7752ZM18.886 26.6757V26.6757H16.886V26.6757H18.886ZM18.1414 28.9748C18.4956 28.6543 18.6462 28.2588 18.7273 27.907C18.8023 27.5816 18.8404 27.1818 18.8811 26.7752L16.891 26.5762C16.845 27.0356 16.8181 27.2855 16.7784 27.4577C16.7448 27.6037 16.731 27.5539 16.7994 27.4919L18.1414 28.9748ZM15.8944 29.4919C16.2978 29.4919 16.6962 29.4939 17.0257 29.4514C17.3835 29.4053 17.789 29.2938 18.1414 28.9748L16.7994 27.4919C16.8662 27.4315 16.9138 27.4493 16.77 27.4678C16.598 27.49 16.3513 27.4919 15.8944 27.4919V29.4919ZM14.1786 29.4919H15.8944V27.4919H14.1786V29.4919ZM11.9316 28.9748C12.2841 29.2938 12.6896 29.4053 13.0473 29.4514C13.3768 29.4939 13.7752 29.4919 14.1786 29.4919V27.4919C13.7218 27.4919 13.475 27.49 13.303 27.4678C13.1593 27.4493 13.2069 27.4315 13.2736 27.4919L11.9316 28.9748ZM11.192 26.7753C11.2326 27.1819 11.2707 27.5816 11.3457 27.9071C11.4268 28.2588 11.5775 28.6544 11.9316 28.9748L13.2736 27.4919C13.3421 27.5539 13.3282 27.6037 13.2946 27.4578C13.2549 27.2855 13.228 27.0358 13.1821 26.5763L11.192 26.7753ZM11.0034 24.8893C10.8259 24.8158 10.8726 24.672 10.9616 25.0285C11.0501 25.3827 11.1059 25.9147 11.192 26.7753L13.1821 26.5763C13.1027 25.7827 13.0344 25.074 12.902 24.5438C12.7701 24.016 12.499 23.344 11.7688 23.0416L11.0034 24.8893ZM9.53639 26.0896C10.2058 25.5419 10.6214 25.2052 10.9345 25.0173C11.2496 24.8281 11.1808 24.9628 11.0034 24.8893L11.7688 23.0416C11.0385 22.7391 10.3717 23.0225 9.90517 23.3025C9.43665 23.5837 8.88724 24.0366 8.26991 24.5417L9.53639 26.0896ZM7.45811 27.1219C7.93513 27.1457 8.32137 26.9725 8.62744 26.7811C8.91059 26.6041 9.22013 26.3483 9.53639 26.0896L8.26991 24.5417C7.91257 24.834 7.71692 24.9917 7.56706 25.0854C7.44012 25.1647 7.46554 25.1198 7.55773 25.1244L7.45811 27.1219ZM5.5036 25.8987C5.78882 26.1839 6.06917 26.467 6.33217 26.6699C6.61778 26.8903 6.98335 27.0982 7.45811 27.1219L7.55773 25.1244C7.64766 25.1289 7.66874 25.1751 7.55402 25.0865C7.41669 24.9806 7.24084 24.8075 6.91781 24.4844L5.5036 25.8987ZM4.29033 24.6854L5.5036 25.8987L6.91781 24.4844L5.70455 23.2712L4.29033 24.6854ZM3.06711 22.7309C3.09079 23.2056 3.29867 23.5712 3.51906 23.8568C3.72202 24.1198 4.00511 24.4002 4.29033 24.6854L5.70455 23.2712C5.38151 22.9481 5.20842 22.7723 5.10245 22.635C5.01392 22.5203 5.06014 22.5413 5.06462 22.6313L3.06711 22.7309ZM4.09939 20.6526C3.84064 20.9689 3.58491 21.2784 3.40786 21.5616C3.21647 21.8676 3.04331 22.2539 3.06711 22.7309L5.06462 22.6313C5.06922 22.7234 5.02425 22.7489 5.10362 22.6219C5.19732 22.4721 5.35493 22.2764 5.6473 21.9191L4.09939 20.6526ZM5.29963 19.1857C5.22614 19.0082 5.36082 18.9395 5.17169 19.2545C4.98378 19.5676 4.64707 19.9832 4.09939 20.6526L5.6473 21.9191C6.15239 21.3018 6.60526 20.7524 6.88648 20.2839C7.16649 19.8174 7.44987 19.1505 7.14739 18.4203L5.29963 19.1857ZM3.41366 18.9971C4.27426 19.0831 4.80623 19.1389 5.16046 19.2274C5.51698 19.3165 5.37313 19.3631 5.29964 19.1857L7.14739 18.4203C6.84492 17.69 6.17302 17.4189 5.64517 17.287C5.11503 17.1546 4.40632 17.0863 3.61267 17.007L3.41366 18.9971ZM1.21419 18.2574C1.53467 18.6116 1.93022 18.7622 2.28197 18.8433C2.60738 18.9183 3.00708 18.9564 3.41366 18.9971L3.61267 17.007C3.15327 16.961 2.90348 16.9341 2.73126 16.8944C2.58539 16.8608 2.63516 16.847 2.6971 16.9154L1.21419 18.2574ZM0.697098 16.0104C0.697098 16.4138 0.695155 16.8122 0.737619 17.1417C0.783733 17.4995 0.895232 17.905 1.21419 18.2574L2.6971 16.9154C2.75751 16.9822 2.73974 17.0298 2.72121 16.886C2.69904 16.714 2.6971 16.4673 2.6971 16.0104H0.697098ZM0.697098 14.2946L0.697098 16.0104H2.6971L2.6971 14.2946H0.697098ZM1.21419 12.0476C0.895232 12.4001 0.783733 12.8056 0.737619 13.1634C0.695155 13.4928 0.697098 13.8913 0.697098 14.2946H2.6971C2.6971 13.8378 2.69904 13.591 2.72121 13.419C2.73974 13.2753 2.75751 13.3229 2.6971 13.3896L1.21419 12.0476ZM3.41383 11.308C3.00719 11.3486 2.60746 11.3867 2.28203 11.4617C1.93027 11.5428 1.53469 11.6935 1.21419 12.0476L2.6971 13.3896C2.63515 13.4581 2.58537 13.4442 2.73129 13.4106C2.90354 13.3709 3.15338 13.344 3.61284 13.2981L3.41383 11.308ZM5.30014 11.1193C5.37365 10.9419 5.51752 10.9885 5.1609 11.0776C4.8066 11.1661 4.27453 11.2219 3.41383 11.308L3.61284 13.2981C4.4066 13.2187 5.11538 13.1504 5.64557 13.018C6.17343 12.8861 6.8454 12.615 7.1479 11.8847L5.30014 11.1193ZM4.09959 9.65202C4.64738 10.3215 4.98417 10.7373 5.17213 11.0504C5.36135 11.3656 5.22662 11.2968 5.30014 11.1194L7.1479 11.8847C7.4504 11.1544 7.16692 10.4875 6.8869 10.021C6.60563 9.55247 6.15269 9.00299 5.64751 8.38554L4.09959 9.65202ZM3.06717 7.57357C3.04337 8.05063 3.21657 8.43689 3.40796 8.74296C3.58504 9.02613 3.84079 9.33571 4.09959 9.65202L5.64751 8.38554C5.35509 8.02815 5.19744 7.83245 5.10371 7.68255C5.02429 7.55556 5.06928 7.58098 5.06468 7.6732L3.06717 7.57357ZM4.29039 5.61906C4.00517 5.90428 3.72208 6.18463 3.51912 6.44764C3.29873 6.73325 3.09084 7.09881 3.06717 7.57357L5.06468 7.6732C5.0602 7.76312 5.01397 7.78421 5.10251 7.66948C5.20848 7.53215 5.38157 7.35631 5.70461 7.03328L4.29039 5.61906ZM5.50366 4.4058L4.29039 5.61906L5.70461 7.03328L6.91787 5.82001L5.50366 4.4058ZM7.45817 3.18257C6.98341 3.20625 6.61784 3.41413 6.33223 3.63453C6.06923 3.83748 5.78888 4.12058 5.50366 4.4058L6.91787 5.82001C7.2409 5.49698 7.41675 5.32388 7.55408 5.21791C7.6688 5.12938 7.64772 5.1756 7.55779 5.18009L7.45817 3.18257ZM9.53645 4.21486C9.22019 3.95611 8.91065 3.70038 8.6275 3.52333C8.32143 3.33194 7.93519 3.15878 7.45817 3.18257L7.55779 5.18009C7.4656 5.18469 7.44019 5.13971 7.56712 5.21909C7.71698 5.31279 7.91263 5.47041 8.26997 5.76278L9.53645 4.21486ZM9.50321 4.18883L9.50321 4.18882L8.30321 5.78882L8.30321 5.78883L9.50321 4.18883ZM11.0034 5.41514C11.1809 5.34164 11.2496 5.47632 10.9345 5.28719C10.6215 5.09927 10.2059 4.76256 9.53645 4.21487L8.26998 5.76278C8.88731 6.26787 9.43672 6.72075 9.90523 7.00198C10.3717 7.28199 11.0386 7.56538 11.7688 7.26289L11.0034 5.41514ZM11.192 3.52951C11.106 4.38999 11.0502 4.92187 10.9617 5.27603C10.8726 5.63244 10.8261 5.48861 11.0034 5.41514L11.7688 7.26289C12.499 6.96043 12.7702 6.28862 12.902 5.76077C13.0345 5.23068 13.1027 4.52205 13.1821 3.72852L11.192 3.52951ZM11.9316 1.33021C11.5775 1.65067 11.4268 2.04618 11.3457 2.39793C11.2707 2.72332 11.2327 3.12299 11.192 3.52951L13.1821 3.72852C13.228 3.26917 13.2549 3.01943 13.2946 2.84725C13.3282 2.70143 13.342 2.75119 13.2736 2.81311L11.9316 1.33021ZM14.1786 0.81311C13.7752 0.81311 13.3768 0.811168 13.0473 0.853632C12.6896 0.899745 12.2841 1.01124 11.9316 1.3302L13.2736 2.81311C13.2069 2.87352 13.1593 2.85575 13.303 2.83723C13.475 2.81505 13.7218 2.81311 14.1786 2.81311V0.81311ZM15.8944 0.81311H14.1786V2.81311H15.8944V0.81311ZM18.1414 1.3302C17.789 1.01124 17.3835 0.899745 17.0257 0.853632C16.6962 0.811168 16.2978 0.81311 15.8944 0.81311V2.81311C16.3513 2.81311 16.598 2.81505 16.77 2.83723C16.9138 2.85575 16.8662 2.87352 16.7994 2.81311L18.1414 1.3302ZM19.3723 15.1525C19.3723 17.5471 17.4311 19.4883 15.0365 19.4883V21.4883C18.5357 21.4883 21.3723 18.6517 21.3723 15.1525H19.3723ZM15.0365 10.8168C17.4311 10.8168 19.3723 12.7579 19.3723 15.1525H21.3723C21.3723 11.6534 18.5357 8.81676 15.0365 8.81676V10.8168ZM10.7007 15.1525C10.7007 12.7579 12.6419 10.8168 15.0365 10.8168V8.81676C11.5374 8.81676 8.70075 11.6534 8.70075 15.1525H10.7007ZM15.0365 19.4883C12.6419 19.4883 10.7007 17.5471 10.7007 15.1525H8.70075C8.70075 18.6517 11.5374 21.4883 15.0365 21.4883V19.4883Z" fill="#8FFF00"/>
</svg>
