<svg width="26" height="27" viewBox="0 0 26 27" fill="none" xmlns="http://www.w3.org/2000/svg">
<path d="M15.4922 3.42166L16.4872 3.32216V3.32216L15.4922 3.42166ZM15.2174 2.21899L16.0065 1.60467L16.0065 1.60466L15.2174 2.21899ZM16.0258 5.53669L16.6289 4.73903L16.6289 4.73902L16.0258 5.53669ZM16.4914 5.72951L16.6289 4.73902L16.4914 5.72951ZM18.3642 4.6113L18.9975 5.38526V5.38526L18.3642 4.6113ZM19.4089 3.95518L19.2854 2.96285L19.4089 3.95518ZM19.7542 3.9724L19.5325 4.94752L19.5325 4.94752L19.7542 3.9724ZM20.7284 4.72921L21.4355 4.02211V4.02211L20.7284 4.72921ZM21.7708 5.77159L21.0637 6.4787L21.7708 5.77159ZM22.5276 6.74583L21.5525 6.9675L21.5525 6.96752L22.5276 6.74583ZM22.5448 7.09105L21.5525 6.9675V6.9675L22.5448 7.09105ZM21.8887 8.13577L22.6626 8.769L22.6626 8.769L21.8887 8.13577ZM20.7704 10.0087L21.7609 9.87109V9.87108L20.7704 10.0087ZM20.9633 10.4742L20.1656 11.0773L20.1656 11.0773L20.9633 10.4742ZM23.0783 11.0078L23.1778 10.0128L23.0783 11.0078ZM24.281 11.2826L23.6667 12.0716L23.6667 12.0716L24.281 11.2826ZM24.513 11.5389L23.6667 12.0716L23.6667 12.0716L24.513 11.5389ZM24.513 15.461L25.3593 15.9937V15.9937L24.513 15.461ZM24.281 15.7174L24.8952 16.5066L24.8952 16.5066L24.281 15.7174ZM23.0784 15.9921L23.1779 16.9872L23.0784 15.9921ZM20.9638 16.5256L20.1663 15.9223L20.1663 15.9223L20.9638 16.5256ZM20.7708 16.9915L19.7803 16.8541V16.8541L20.7708 16.9915ZM21.8889 18.8638L21.1149 19.4971L21.8889 18.8638ZM22.5448 19.9082L21.5525 20.0319L21.5525 20.0319L22.5448 19.9082ZM22.5276 20.2538L23.5027 20.4756L23.5027 20.4756L22.5276 20.2538ZM19.7542 23.027L19.9759 24.0022L19.9759 24.0022L19.7542 23.027ZM19.409 23.0443L19.2854 24.0366L19.409 23.0443ZM18.3643 22.3881L17.731 23.1621V23.1621L18.3643 22.3881ZM16.4914 21.2699L16.629 22.2604L16.629 22.2604L16.4914 21.2699ZM16.0259 21.4628L16.629 22.2604L16.629 22.2604L16.0259 21.4628ZM15.4922 23.578L16.4873 23.6775V23.6775L15.4922 23.578ZM15.2174 24.7811L16.0063 25.3955L16.0063 25.3955L15.2174 24.7811ZM14.9613 25.0128L14.4284 24.1666L14.4284 24.1666L14.9613 25.0128ZM11.0389 25.0129L11.5717 24.1666L11.5717 24.1666L11.0389 25.0129ZM10.7827 24.781L11.5717 24.1667L11.5717 24.1666L10.7827 24.781ZM10.5079 23.5783L9.51284 23.6778L10.5079 23.5783ZM9.97422 21.4632L10.5773 20.6655L10.5773 20.6655L9.97422 21.4632ZM9.50876 21.2704L9.37114 22.2609H9.37115L9.50876 21.2704ZM7.63581 22.3886L8.26054 23.1695L8.26905 23.1626L7.63581 22.3886ZM7.6358 22.3886L7.01106 21.6077L7.00256 21.6147L7.6358 22.3886ZM6.59105 23.0448L6.71458 24.0371H6.71458L6.59105 23.0448ZM6.24586 23.0276L6.02419 24.0027L6.02421 24.0027L6.24586 23.0276ZM5.27159 22.2707L5.97869 21.5636L5.27159 22.2707ZM4.22924 21.2284L3.52213 21.9355H3.52213L4.22924 21.2284ZM3.47241 20.2541L2.49729 20.4758H2.49729L3.47241 20.2541ZM3.45519 19.9089L2.46285 19.7854L3.45519 19.9089ZM4.11133 18.8642L4.88529 19.4974H4.88529L4.11133 18.8642ZM5.22957 16.9913L4.23908 17.1289L4.23908 17.1289L5.22957 16.9913ZM5.03675 16.5258L4.23908 17.1289H4.23908L5.03675 16.5258ZM2.92171 15.9921L3.02122 14.9971H3.02121L2.92171 15.9921ZM1.71905 15.7174L1.10473 16.5064L1.10473 16.5064L1.71905 15.7174ZM1.48711 15.4611L2.33337 14.9283L2.33337 14.9283L1.48711 15.4611ZM1.48717 11.5388L0.640966 11.0059H0.640965L1.48717 11.5388ZM1.71896 11.2826L1.10454 10.4937L1.10454 10.4937L1.71896 11.2826ZM2.92184 11.0078V10.0078H2.87197L2.82234 10.0128L2.92184 11.0078ZM2.92187 11.0078V12.0078H2.97174L3.02137 12.0028L2.92187 11.0078ZM5.03729 10.474L4.23952 9.87104L4.23952 9.87105L5.03729 10.474ZM5.22998 10.0088L6.22045 10.1466L5.22998 10.0088ZM4.11153 8.13543L4.88549 7.5022L4.11153 8.13543ZM3.45522 7.09036L4.44758 6.96698L4.44758 6.96698L3.45522 7.09036ZM3.47243 6.74547L4.44758 6.96698L4.44758 6.96698L3.47243 6.74547ZM4.22943 5.77092L4.93654 6.47802L4.22943 5.77092ZM5.27164 4.72871L4.56453 4.0216V4.0216L5.27164 4.72871ZM5.27164 4.72871L4.56453 4.0216L4.56453 4.0216L5.27164 4.72871ZM6.24591 3.97187L6.46757 4.94699L6.46757 4.94699L6.24591 3.97187ZM6.5911 3.95465L6.71463 2.96231L6.71463 2.96231L6.5911 3.95465ZM7.63594 4.61087L7.0027 5.38483L7.63594 4.61087ZM9.50861 5.72908L9.64602 6.71959L9.50861 5.72908ZM9.97443 5.53613L10.5777 6.3337L10.5777 6.33369L9.97443 5.53613ZM10.5079 3.4215L9.51285 3.322V3.322L10.5079 3.4215ZM10.7826 2.21909L11.5717 2.83331L11.5717 2.83331L10.7826 2.21909ZM11.039 1.98698L11.5717 2.83331L11.5717 2.83331L11.039 1.98698ZM14.9612 1.98705L14.4284 2.83331V2.83331L14.9612 1.98705ZM16.4872 3.32216C16.4567 3.01715 16.4277 2.71558 16.3773 2.46478C16.3233 2.19653 16.2282 1.88938 16.0065 1.60467L14.4284 2.83331C14.384 2.77628 14.3937 2.74548 14.4166 2.85915C14.4429 2.99026 14.4627 3.17618 14.4972 3.52116L16.4872 3.32216ZM16.6289 4.73902C16.7496 4.83023 16.7127 4.91018 16.6517 4.63036C16.5925 4.35868 16.5515 3.96475 16.4872 3.32216L14.4972 3.52116C14.5564 4.11294 14.6079 4.64479 14.6976 5.05617C14.7854 5.4594 14.9536 5.97968 15.4227 6.33436L16.6289 4.73902ZM16.6289 4.73902L16.6289 4.73903L15.4227 6.33435C15.6951 6.54027 16.0156 6.67303 16.3538 6.72001L16.6289 4.73902ZM17.731 3.83734C17.2312 4.24628 16.9236 4.49584 16.6897 4.64609C16.4487 4.80083 16.4791 4.71822 16.6289 4.73902L16.3538 6.72001C16.9363 6.80091 17.4231 6.55197 17.7704 6.32897C18.1246 6.10146 18.5372 5.76186 18.9975 5.38526L17.731 3.83734ZM19.2854 2.96285C18.9273 3.00743 18.6428 3.15732 18.415 3.30884C18.202 3.45051 17.9682 3.64324 17.731 3.83734L18.9975 5.38526C19.2658 5.16572 19.4112 5.04821 19.5226 4.97415C19.6191 4.90994 19.6042 4.93859 19.5325 4.94752L19.2854 2.96285ZM19.9759 2.99729C19.7494 2.94581 19.5158 2.93416 19.2854 2.96285L19.5325 4.94752V4.94752L19.9759 2.99729ZM21.4355 4.02211C21.2187 3.80536 21.0053 3.59033 20.8075 3.42817C20.5959 3.25473 20.3277 3.07728 19.9759 2.99729L19.5325 4.94752C19.462 4.9315 19.45 4.90151 19.5397 4.975C19.6431 5.05978 19.7761 5.19117 20.0213 5.43632L21.4355 4.02211ZM22.4779 5.06448L21.4355 4.02211L20.0213 5.43632L21.0637 6.4787L22.4779 5.06448ZM23.5027 6.52416C23.4227 6.1723 23.2453 5.90413 23.0718 5.69251C22.9096 5.49465 22.6946 5.28123 22.4779 5.06448L21.0637 6.4787C21.3088 6.72385 21.4402 6.85686 21.525 6.9603C21.5985 7.04997 21.5685 7.03798 21.5525 6.9675L23.5027 6.52416ZM23.5371 7.21461C23.5658 6.9842 23.5542 6.75055 23.5027 6.52414L21.5525 6.96752V6.9675L23.5371 7.21461ZM22.6626 8.769C22.8567 8.53176 23.0495 8.29801 23.1911 8.08499C23.3427 7.85716 23.4926 7.57268 23.5371 7.21461L21.5525 6.9675C21.5614 6.89579 21.59 6.88087 21.5258 6.97741C21.4518 7.08877 21.3343 7.2342 21.1147 7.50253L22.6626 8.769ZM21.7609 9.87108C21.7817 10.0209 21.6991 10.0513 21.8539 9.81035C22.0041 9.57638 22.2537 9.26883 22.6626 8.769L21.1147 7.50253C20.7381 7.96283 20.3985 8.37538 20.171 8.72965C19.948 9.07692 19.699 9.56376 19.78 10.1463L21.7609 9.87108ZM21.7609 9.87108V9.87109L19.78 10.1463C19.8269 10.4844 19.9597 10.8049 20.1656 11.0773L21.7609 9.87108ZM23.1778 10.0128C22.5352 9.94851 22.1413 9.90751 21.8696 9.84831C21.5898 9.78733 21.6697 9.75044 21.7609 9.87108L20.1656 11.0773C20.5203 11.5464 21.0405 11.7146 21.4438 11.8025C21.8552 11.8921 22.387 11.9437 22.9788 12.0028L23.1778 10.0128ZM24.8954 10.4935C24.6107 10.2719 24.3035 10.1767 24.0352 10.1227C23.7844 10.0723 23.4829 10.0433 23.1778 10.0128L22.9788 12.0028C23.3238 12.0373 23.5098 12.0571 23.6409 12.0835C23.7545 12.1063 23.7237 12.116 23.6667 12.0716L24.8954 10.4935ZM25.3592 11.0061C25.2355 10.8096 25.0786 10.6362 24.8954 10.4935L23.6667 12.0716L23.6667 12.0716L25.3592 11.0061ZM25.6667 12.7629C25.6667 12.4564 25.6679 12.1534 25.6426 11.8988C25.6156 11.6266 25.5515 11.3114 25.3592 11.0061L23.6667 12.0716C23.6282 12.0105 23.6409 11.9808 23.6524 12.0962C23.6656 12.2293 23.6667 12.4162 23.6667 12.7629H25.6667ZM25.6667 14.2372V12.7629H23.6667V14.2372H25.6667ZM25.3593 15.9937C25.5515 15.6884 25.6156 15.3733 25.6426 15.1011C25.6679 14.8465 25.6667 14.5436 25.6667 14.2372H23.6667C23.6667 14.5838 23.6656 14.7707 23.6524 14.9038C23.6409 15.0192 23.6282 14.9895 23.6667 14.9283L25.3593 15.9937ZM24.8952 16.5066C25.0785 16.3638 25.2356 16.1903 25.3593 15.9937L23.6667 14.9283L23.6667 14.9283L24.8952 16.5066ZM23.1779 16.9872C23.4829 16.9567 23.7844 16.9277 24.0352 16.8772C24.3034 16.8233 24.6105 16.7282 24.8952 16.5066L23.6667 14.9283C23.7237 14.8839 23.7545 14.8936 23.6409 14.9165C23.5098 14.9429 23.3239 14.9626 22.9789 14.9971L23.1779 16.9872ZM21.7614 17.1288C21.6701 17.2494 21.5902 17.2125 21.87 17.1516C22.1417 17.0924 22.5355 17.0514 23.1779 16.9872L22.9789 14.9971C22.3873 15.0563 21.8556 15.1078 21.4443 15.1974C21.0412 15.2853 20.521 15.4534 20.1663 15.9223L21.7614 17.1288ZM21.7614 17.1288L21.7614 17.1288L20.1663 15.9223C19.9601 16.1948 19.8273 16.5156 19.7803 16.8541L21.7614 17.1288ZM22.6628 18.2306C22.254 17.7309 22.0045 17.4235 21.8543 17.1896C21.6996 16.9486 21.7821 16.9791 21.7614 17.1288L19.7803 16.8541C19.6996 17.4365 19.9485 17.9231 20.1714 18.2703C20.3989 18.6245 20.7384 19.0369 21.1149 19.4971L22.6628 18.2306ZM23.5371 19.7845C23.4925 19.4266 23.3427 19.1422 23.1912 18.9144C23.0495 18.7014 22.8569 18.4678 22.6628 18.2306L21.1149 19.4971C21.3344 19.7653 21.4518 19.9107 21.5259 20.022C21.5901 20.1185 21.5614 20.1036 21.5525 20.0319L23.5371 19.7845ZM23.5027 20.4756C23.5542 20.249 23.5659 20.0151 23.5371 19.7845L21.5525 20.0319L21.5525 20.0319L23.5027 20.4756ZM22.4781 21.9348C22.6947 21.7181 22.9097 21.5048 23.0718 21.307C23.2452 21.0954 23.4227 20.8274 23.5027 20.4756L21.5525 20.0319C21.5685 19.9615 21.5985 19.9495 21.525 20.0391C21.4403 20.1425 21.3089 20.2755 21.0638 20.5206L22.4781 21.9348ZM21.4355 22.9773L22.4781 21.9348L21.0638 20.5206L20.0213 21.5631L21.4355 22.9773ZM19.9759 24.0022C20.3278 23.9222 20.5959 23.7447 20.8075 23.5713C21.0054 23.4091 21.2188 23.1941 21.4355 22.9773L20.0213 21.5631C19.7762 21.8083 19.6432 21.9397 19.5397 22.0244C19.4501 22.0979 19.4621 22.0679 19.5325 22.0519L19.9759 24.0022ZM19.2854 24.0366C19.5158 24.0653 19.7495 24.0536 19.9759 24.0022L19.5325 22.0519L19.5325 22.0519L19.2854 24.0366ZM17.731 23.1621C17.9683 23.3562 18.202 23.5489 18.415 23.6906C18.6429 23.8421 18.9273 23.992 19.2854 24.0366L19.5325 22.0519C19.6042 22.0609 19.6192 22.0895 19.5226 22.0253C19.4113 21.9512 19.2658 21.8337 18.9975 21.6142L17.731 23.1621ZM16.629 22.2604C16.4792 22.2812 16.4487 22.1986 16.6897 22.3534C16.9237 22.5036 17.2312 22.7532 17.731 23.1621L18.9975 21.6142C18.5372 21.2376 18.1247 20.898 17.7704 20.6705C17.4232 20.4475 16.9363 20.1985 16.3538 20.2794L16.629 22.2604ZM16.629 22.2604L16.629 22.2604L16.3538 20.2794C16.0156 20.3264 15.6951 20.4592 15.4228 20.6651L16.629 22.2604ZM16.4873 23.6775C16.5515 23.0349 16.5926 22.6409 16.6518 22.3691C16.7127 22.0892 16.7496 22.1692 16.629 22.2604L15.4228 20.6651C14.9537 21.0198 14.7855 21.5401 14.6976 21.9433C14.608 22.3548 14.5564 22.8867 14.4972 23.4785L16.4873 23.6775ZM16.0063 25.3955C16.2281 25.1107 16.3233 24.8035 16.3773 24.5352C16.4277 24.2843 16.4568 23.9826 16.4873 23.6775L14.4972 23.4785C14.4627 23.8236 14.4429 24.0096 14.4166 24.1408C14.3937 24.2545 14.384 24.2237 14.4284 24.1666L16.0063 25.3955ZM15.4941 25.859C15.6905 25.7354 15.8638 25.5785 16.0063 25.3955L14.4284 24.1666L14.4284 24.1666L15.4941 25.859ZM13.7369 26.1666C14.0435 26.1666 14.3466 26.1678 14.6012 26.1425C14.8736 26.1155 15.1887 26.0514 15.4941 25.859L14.4284 24.1666C14.4896 24.1281 14.5193 24.1409 14.4039 24.1523C14.2707 24.1655 14.0837 24.1666 13.7369 24.1666V26.1666ZM12.263 26.1666H13.7369V24.1666H12.263V26.1666ZM10.5061 25.8592C10.8115 26.0514 11.1266 26.1156 11.3989 26.1425C11.6535 26.1678 11.9565 26.1666 12.263 26.1666V24.1666C11.9163 24.1666 11.7293 24.1655 11.5962 24.1523C11.4808 24.1409 11.5105 24.1281 11.5717 24.1666L10.5061 25.8592ZM9.9936 25.3953C10.1362 25.5785 10.3097 25.7355 10.5061 25.8592L11.5717 24.1666L11.5717 24.1667L9.9936 25.3953ZM9.51284 23.6778C9.54334 23.9828 9.57235 24.2844 9.62279 24.5352C9.67675 24.8034 9.77193 25.1106 9.99361 25.3953L11.5717 24.1666C11.6161 24.2237 11.6064 24.2545 11.5835 24.1408C11.5572 24.0097 11.5374 23.8238 11.5029 23.4788L9.51284 23.6778ZM9.37114 22.2609C9.2505 22.1697 9.28739 22.0897 9.34837 22.3695C9.40757 22.6412 9.44858 23.0352 9.51284 23.6778L11.5029 23.4788C11.4437 22.887 11.3922 22.3551 11.3025 21.9437C11.2146 21.5405 11.0464 21.0202 10.5773 20.6655L9.37114 22.2609ZM9.37115 22.2609L9.37115 22.2609L10.5773 20.6655C10.305 20.4596 9.9845 20.3269 9.64637 20.2799L9.37115 22.2609ZM8.26905 23.1626C8.76889 22.7536 9.07644 22.5041 9.31042 22.3538C9.5514 22.1991 9.52094 22.2817 9.37114 22.2609L9.64637 20.2799C9.06385 20.199 8.577 20.4479 8.22972 20.6709C7.87544 20.8984 7.46288 21.2381 7.00257 21.6147L8.26905 23.1626ZM8.26049 23.1695L8.26051 23.1695L7.01112 21.6078L7.0111 21.6078L8.26049 23.1695ZM6.71458 24.0371C7.07266 23.9926 7.35716 23.8427 7.585 23.6911C7.79802 23.5495 8.03179 23.3567 8.26903 23.1626L7.00256 21.6147C6.73422 21.8342 6.58879 21.9517 6.47742 22.0258C6.38088 22.09 6.39579 22.0614 6.46751 22.0525L6.71458 24.0371ZM6.02421 24.0027C6.25058 24.0542 6.48419 24.0658 6.71458 24.0371L6.46751 22.0525L6.4675 22.0524L6.02421 24.0027ZM4.56448 22.9778C4.78123 23.1946 4.99466 23.4096 5.19252 23.5718C5.40415 23.7453 5.67232 23.9227 6.02419 24.0027L6.46752 22.0525C6.538 22.0685 6.54999 22.0985 6.46031 22.025C6.35687 21.9402 6.22386 21.8088 5.97869 21.5636L4.56448 22.9778ZM3.52213 21.9355L4.56448 22.9778L5.97869 21.5636L4.93634 20.5213L3.52213 21.9355ZM2.49729 20.4758C2.57728 20.8277 2.75473 21.0958 2.92818 21.3075C3.09035 21.5053 3.30538 21.7187 3.52213 21.9355L4.93635 20.5213C4.69119 20.2761 4.55979 20.1431 4.47502 20.0397C4.40152 19.95 4.43151 19.962 4.44753 20.0325L2.49729 20.4758ZM2.46285 19.7854C2.43417 20.0158 2.44582 20.2494 2.49729 20.4758L4.44753 20.0325H4.44753L2.46285 19.7854ZM3.33737 18.231C3.14326 18.4682 2.95053 18.702 2.80885 18.915C2.65732 19.1428 2.50743 19.4273 2.46285 19.7854L4.44753 20.0325C4.4386 20.1042 4.40995 20.1191 4.47416 20.0226C4.54823 19.9112 4.66574 19.7658 4.88529 19.4974L3.33737 18.231ZM4.23908 17.1289C4.21827 16.9791 4.30089 16.9486 4.14613 17.1896C3.99588 17.4236 3.74632 17.7311 3.33737 18.231L4.88529 19.4974C5.2619 19.0371 5.60151 18.6246 5.82901 18.2703C6.05202 17.923 6.30097 17.4362 6.22006 16.8537L4.23908 17.1289ZM4.23908 17.1289L4.23908 17.1289L6.22006 16.8537C6.17308 16.5155 6.04032 16.195 5.83442 15.9227L4.23908 17.1289ZM2.82221 16.9872C3.4648 17.0514 3.85874 17.0924 4.13042 17.1516C4.41023 17.2126 4.33028 17.2495 4.23908 17.1289L5.83442 15.9227C5.47974 15.4536 4.95946 15.2854 4.55622 15.1975C4.14485 15.1079 3.613 15.0563 3.02122 14.9971L2.82221 16.9872ZM1.10473 16.5064C1.38945 16.7281 1.69659 16.8233 1.96484 16.8772C2.21564 16.9277 2.5172 16.9567 2.82221 16.9872L3.02121 14.9971C2.67624 14.9626 2.49032 14.9429 2.35921 14.9165C2.24554 14.8936 2.27635 14.8839 2.33337 14.9283L1.10473 16.5064ZM0.64084 15.9938C0.764543 16.1903 0.921518 16.3638 1.10473 16.5064L2.33337 14.9283H2.33337L0.64084 15.9938ZM0.333374 14.2371C0.333374 14.5436 0.33223 14.8465 0.357469 15.1011C0.384464 15.3734 0.448604 15.6885 0.640841 15.9938L2.33337 14.9283C2.37188 14.9895 2.35915 15.0192 2.34771 14.9038C2.33452 14.7707 2.33337 14.5837 2.33337 14.2371H0.333374ZM0.333374 12.763V14.2371H2.33337V12.763H0.333374ZM0.640965 11.0059C0.448652 11.3113 0.384485 11.6265 0.357479 11.8988C0.332229 12.1534 0.333374 12.4565 0.333374 12.763H2.33337C2.33337 12.4163 2.33452 12.2293 2.34772 12.0962C2.35916 11.9808 2.37189 12.0105 2.33337 12.0716L0.640965 11.0059ZM1.10454 10.4937C0.921475 10.6362 0.764609 10.8096 0.640966 11.0059L2.33337 12.0716L2.33338 12.0716L1.10454 10.4937ZM2.82234 10.0128C2.51727 10.0433 2.21565 10.0723 1.9648 10.1227C1.6965 10.1767 1.38929 10.2719 1.10454 10.4937L2.33337 12.0716C2.27634 12.116 2.24553 12.1063 2.35921 12.0835C2.49035 12.0571 2.6763 12.0373 3.02135 12.0028L2.82234 10.0128ZM2.92186 10.0078H2.92184V12.0078H2.92186V10.0078ZM2.92187 10.0078H2.92186V12.0078H2.92187V10.0078ZM4.23952 9.87105C4.33072 9.75037 4.4107 9.78727 4.13084 9.84826C3.85911 9.90747 3.46509 9.94849 2.82236 10.0128L3.02137 12.0028C3.61327 11.9436 4.14524 11.8921 4.55669 11.8024C4.96001 11.7145 5.48039 11.5462 5.83506 11.077L4.23952 9.87105ZM4.23952 9.87104L4.23952 9.87104L5.83506 11.077C6.04078 10.8048 6.17345 10.4845 6.22045 10.1466L4.23952 9.87104ZM3.33758 8.76867C3.74663 9.26863 3.99626 9.57626 4.14654 9.81029C4.30133 10.0513 4.21868 10.0209 4.23952 9.87104L6.22045 10.1466C6.30148 9.56393 6.05249 9.07697 5.82944 8.72962C5.60189 8.37527 5.2622 7.96262 4.88549 7.5022L3.33758 8.76867ZM2.46287 7.21374C2.5074 7.57194 2.65732 7.85652 2.80889 8.08443C2.95061 8.29752 3.1434 8.53135 3.33758 8.76867L4.88549 7.5022C4.66587 7.23377 4.54832 7.08829 4.47423 6.97689C4.41 6.88031 4.43866 6.89523 4.44758 6.96698L2.46287 7.21374ZM2.49727 6.52395C2.44589 6.75015 2.43425 6.98356 2.46287 7.21374L4.44758 6.96698V6.96698L2.49727 6.52395ZM3.52233 5.06381C3.30551 5.28062 3.09041 5.4941 2.9282 5.69203C2.75471 5.90372 2.57722 6.17197 2.49727 6.52395L4.44758 6.96698C4.43157 7.03747 4.40156 7.04947 4.47508 6.95977C4.55988 6.85631 4.69131 6.72325 4.93654 6.47802L3.52233 5.06381ZM4.56453 4.0216L3.52233 5.06381L4.93654 6.47802L5.97874 5.43582L4.56453 4.0216ZM4.56453 4.0216L4.56453 4.0216L5.97874 5.43582L5.97875 5.43581L4.56453 4.0216ZM6.02425 2.99674C5.67238 3.07673 5.40421 3.25418 5.19258 3.42763C4.99471 3.58981 4.78129 3.80485 4.56453 4.0216L5.97875 5.43581C6.22391 5.19065 6.35693 5.05925 6.46036 4.97448C6.55004 4.90098 6.53805 4.93097 6.46757 4.94699L6.02425 2.99674ZM6.71463 2.96231C6.48425 2.93363 6.25064 2.94528 6.02425 2.99674L6.46757 4.94699V4.94699L6.71463 2.96231ZM8.26918 3.83691C8.0319 3.64277 7.79812 3.45002 7.58508 3.30833C7.35724 3.1568 7.07273 3.00689 6.71463 2.96231L6.46757 4.94699C6.39583 4.93806 6.38091 4.9094 6.47749 4.97364C6.58887 5.04772 6.73433 5.16525 7.0027 5.38483L8.26918 3.83691ZM9.3712 4.73857C9.521 4.71778 9.55142 4.80038 9.31044 4.64562C9.07648 4.49537 8.76895 4.24582 8.26918 3.83691L7.0027 5.38483C7.46296 5.7614 7.87546 6.10097 8.22968 6.32846C8.57686 6.55143 9.06361 6.80039 9.64602 6.71959L9.3712 4.73857ZM9.3712 4.73856L9.3712 4.73857L9.64602 6.71959C9.98443 6.67265 10.3052 6.53979 10.5777 6.3337L9.3712 4.73856ZM9.51285 3.322C9.44861 3.96445 9.40761 4.3583 9.34843 4.62993C9.28748 4.90969 9.2506 4.82978 9.3712 4.73857L10.5777 6.33369C11.0466 5.97901 11.2148 5.45884 11.3026 5.05569C11.3922 4.64439 11.4438 4.11266 11.5029 3.52101L9.51285 3.322ZM9.99344 1.60486C9.77186 1.88954 9.67671 2.19662 9.62278 2.46481C9.57235 2.71556 9.54335 3.01706 9.51285 3.322L11.5029 3.52101C11.5374 3.17611 11.5572 2.99023 11.5835 2.85914C11.6064 2.7455 11.6161 2.77629 11.5717 2.83331L9.99344 1.60486ZM10.5064 1.14065C10.3097 1.26442 10.1362 1.4215 9.99344 1.60486L11.5717 2.83331L11.5717 2.83331L10.5064 1.14065ZM12.2628 0.833313C11.9564 0.833313 11.6535 0.832169 11.3989 0.857398C11.1267 0.884381 10.8117 0.948493 10.5064 1.14065L11.5717 2.83331C11.5105 2.8718 11.4809 2.85908 11.5962 2.84765C11.7293 2.83446 11.9162 2.83331 12.2628 2.83331V0.833313ZM13.7371 0.833313H12.2628V2.83331H13.7371V0.833313ZM15.4939 1.14078C15.1886 0.948544 14.8735 0.884403 14.6012 0.857408C14.3466 0.832169 14.0436 0.833313 13.7371 0.833313V2.83331C14.0838 2.83331 14.2708 2.83446 14.4039 2.84765C14.5192 2.85909 14.4895 2.87182 14.4284 2.83331L15.4939 1.14078ZM16.0065 1.60466C15.8639 1.42146 15.6904 1.26448 15.4939 1.14078L14.4284 2.83331V2.83331L16.0065 1.60466ZM16.6667 13.5C16.6667 15.525 15.0251 17.1666 13 17.1666V19.1666C16.1297 19.1666 18.6667 16.6296 18.6667 13.5H16.6667ZM13 9.83331C15.0251 9.83331 16.6667 11.4749 16.6667 13.5H18.6667C18.6667 10.3704 16.1297 7.83331 13 7.83331V9.83331ZM9.33337 13.5C9.33337 11.4749 10.975 9.83331 13 9.83331V7.83331C9.87043 7.83331 7.33337 10.3704 7.33337 13.5H9.33337ZM13 17.1666C10.975 17.1666 9.33337 15.525 9.33337 13.5H7.33337C7.33337 16.6296 9.87043 19.1666 13 19.1666V17.1666Z" fill="white"/>
</svg>
