<svg width="27" height="26" viewBox="0 0 27 26" fill="none" xmlns="http://www.w3.org/2000/svg">
<path d="M13.4118 23.6667L2.15369 10.3759C1.79152 9.94832 1.61043 9.73453 1.56224 9.47234C1.51406 9.21016 1.60731 8.94596 1.7938 8.41756L3.46986 3.66872C3.92494 2.37933 4.15248 1.73464 4.67165 1.36732C5.19082 1 5.87449 1 7.24182 1H19.5817C20.949 1 21.6327 1 22.1519 1.36732C22.671 1.73464 22.8986 2.37933 23.3537 3.66872L25.0297 8.41756C25.2162 8.94596 25.3095 9.21016 25.2613 9.47234C25.2131 9.73453 25.032 9.94832 24.6698 10.3759L13.4118 23.6667ZM13.4118 23.6667L18.6618 8.08333M13.4118 23.6667L8.16176 8.08333M24.6618 9.5L18.6618 8.08333M18.6618 8.08333L16.4118 2.41667M18.6618 8.08333H8.16176M10.4118 2.41667L8.16176 8.08333M8.16176 8.08333L2.16176 9.5" stroke="white" stroke-width="2" stroke-linecap="round"/>
</svg>
