<svg width="23" height="27" viewBox="0 0 23 27" fill="none" xmlns="http://www.w3.org/2000/svg">
<path d="M2.81378 24.9204L3.32526 25.7797L2.81378 24.9204ZM20.5564 12.6407L21.0679 11.7814L20.5564 12.6407ZM20.5564 14.3593L20.0449 13.5L20.5564 14.3593ZM3.32527 1.22034L21.0679 11.7814L20.0449 13.5L2.3023 2.93892L3.32527 1.22034ZM21.0679 15.2186L3.32526 25.7797L2.3023 24.0611L20.0449 13.5L21.0679 15.2186ZM2 3.11078V23.8892H0V3.11078H2ZM3.32526 25.7797C1.85879 26.6526 0 25.5958 0 23.8892H2C2 24.0444 2.16898 24.1404 2.3023 24.0611L3.32526 25.7797ZM21.0679 11.7814C22.3706 12.5568 22.3706 14.4432 21.0679 15.2186L20.0449 13.5H20.0449L21.0679 11.7814ZM2.3023 2.93892C2.16898 2.85957 2 2.95564 2 3.11078H0C0 1.40418 1.8588 0.347439 3.32527 1.22034L2.3023 2.93892Z" fill="#7CDE00"/>
</svg>
